<?xml version="1.0" encoding="UTF-8" standalone="no"?>
<svg
   xmlns:dc="http://purl.org/dc/elements/1.1/"
   xmlns:cc="http://creativecommons.org/ns#"
   xmlns:rdf="http://www.w3.org/1999/02/22-rdf-syntax-ns#"
   xmlns:svg="http://www.w3.org/2000/svg"
   xmlns="http://www.w3.org/2000/svg"
   xmlns:sodipodi="http://sodipodi.sourceforge.net/DTD/sodipodi-0.dtd"
   xmlns:inkscape="http://www.inkscape.org/namespaces/inkscape"
   width="600"
   height="1024"
   viewBox="0 0 1800 3072"
   version="1.1"
   xml:space="preserve"
   style="clip-rule:evenodd;fill-rule:evenodd;stroke-linejoin:round;stroke-miterlimit:1.41421"
   id="svg40"
   sodipodi:docname="klipper_splashscreen.svg"
   inkscape:version="1.0.1 (3bc2e813f5, 2020-09-07)"
   inkscape:export-filename="/home/kevin/src/reprap/firmware/klipper/logs/logo-20190416/klipper6.svg.png"
   inkscape:export-xdpi="96"
   inkscape:export-ydpi="96"><metadata
   id="metadata46"><rdf:RDF><cc:Work
       rdf:about=""><dc:format>image/svg+xml</dc:format><dc:type
         rdf:resource="http://purl.org/dc/dcmitype/StillImage" /><dc:title></dc:title></cc:Work></rdf:RDF></metadata><defs
   id="defs44">
        </defs><sodipodi:namedview
   pagecolor="#000000"
   bordercolor="#666666"
   borderopacity="1"
   objecttolerance="10"
   gridtolerance="10"
   guidetolerance="10"
   inkscape:pageopacity="0"
   inkscape:pageshadow="2"
   inkscape:window-width="1920"
   inkscape:window-height="2080"
   id="namedview42"
   showgrid="false"
   inkscape:zoom="0.95428572"
   inkscape:cx="338.05587"
   inkscape:cy="379.39911"
   inkscape:window-x="1909"
   inkscape:window-y="-11"
   inkscape:window-maximized="0"
   inkscape:current-layer="svg40"
   showguides="false"
   showborder="true"
   inkscape:document-rotation="0"
   fit-margin-top="1"
   scale-x="2.5"
   fit-margin-left="0"
   fit-margin-right="0"
   fit-margin-bottom="0"
   viewbox-width="600"
   inkscape:snap-object-midpoints="true"
   inkscape:snap-center="true"><inkscape:grid
     type="xygrid"
     id="grid905"
     originx="-35.830522"
     originy="-146.31449" /></sodipodi:namedview>
    
<g
   id="g884"
   transform="translate(150.00001,256.00001)"><path
     style="fill:#266673;fill-opacity:1"
     d="M 399.99998,991.49999 V 1131.5 l 260,255 115.00003,-5 h 80 L 1100,1131.5 V 991.49999 h -10 L 755.00001,1331.5 409.99998,991.49999 Z"
     id="path2"
     inkscape:connector-curvature="0"
     sodipodi:nodetypes="ccccccccccc" /><path
     style="fill:#266673;fill-opacity:1;stroke-width:1.03281"
     d="m 509.99998,1375.5 -58,57 1,25 v 19 l 57,57 h 27 v -1 l -76,-78.5 76,-77.5 v -1 z"
     id="path8"
     inkscape:connector-curvature="0"
     sodipodi:nodetypes="ccccccccccc" /><g
     transform="translate(369.99987,957.54799)"
     id="g17">
                <path
   d="m 83.041215,464.92108 h 0.001 l -0.04211,27.03092 h 11 l 73.000005,-74 v 14.301 l -63,64.199 63,65.5 v 14 l -73.000002,-75 h -13 c -2,0 -4,-2 -4,-4 h -2 v -33 h 2 c 0,-1 1,-2 3.00004,-2 1.99996,0 2.99996,1 2.99996,2 z"
   style="fill:#ffffff;fill-opacity:1"
   id="path15"
   inkscape:connector-curvature="0"
   sodipodi:nodetypes="cccccccccccccccccc" />
            </g><g
     id="path839"
     transform="matrix(1.03281,0,0,1.0326797,394.31097,935.57849)">
                <rect
   x="21"
   y="426"
   width="30.015202"
   height="153"
   style="fill:#266673;fill-opacity:1;fill-rule:nonzero"
   id="rect12" />
            </g><rect
     x="617"
     y="1426.5001"
     width="24"
     height="107"
     style="fill:#266673;fill-opacity:1;stroke-width:1.1961"
     id="rect23" /><path
     d="m 741.98881,1478.9596 c 0,-10.8903 -2.4532,-19.3602 -7.36202,-25.4107 -4.90765,-6.0506 -12.80741,-9.0747 -23.69929,-9.0747 -2.28639,0 -4.6724,0.1008 -7.16044,0.3024 -2.48802,0.2016 -4.94125,0.6385 -7.36207,1.3105 v 60.2992 c 2.15197,1.4785 5.00967,2.8573 8.57188,4.1341 3.56342,1.2769 7.36208,1.9153 11.39597,1.9153 8.87554,0 15.36385,-3.0241 19.46496,-9.0746 4.10111,-6.0506 6.15101,-14.1844 6.15101,-24.4015 z m 25.0112,-0.4032 c 0,8.0666 -1.0418,15.4612 -3.1266,22.1826 -2.0847,6.7226 -5.0757,12.5043 -8.9751,17.3441 -3.8995,4.8397 -8.7747,8.6042 -14.6234,11.2935 -5.84975,2.6892 -12.47249,4.0333 -19.86697,4.0333 -4.97606,0 -9.54765,-0.6048 -13.71597,-1.8145 -4.16832,-1.2108 -7.59731,-2.5548 -10.28698,-4.0345 V 1568.5 h -24.40501 v -139.3526 c 4.97486,-1.3452 11.09352,-2.6221 18.35477,-3.8317 7.26125,-1.2108 14.92578,-1.8157 22.99357,-1.8157 8.33664,0 15.79953,1.2769 22.38866,3.8318 6.58793,2.5548 12.20253,6.2185 16.84133,10.9911 4.6388,4.7725 8.2022,10.5543 10.6902,17.344 2.4869,6.7886 3.7315,14.4184 3.7315,22.8895 z"
     style="fill:#266673;fill-opacity:1;fill-rule:nonzero;stroke-width:1.20012"
     id="path25"
     inkscape:connector-curvature="0" /><path
     d="m 862.98921,1478.9596 c 0,-10.8903 -2.4544,-19.3602 -7.362,-25.4107 -4.9076,-6.0506 -12.8073,-9.0747 -23.699,-9.0747 -2.2864,0 -4.6736,0.1008 -7.1604,0.3024 -2.488,0.2016 -4.9411,0.6385 -7.3619,1.3105 v 60.2992 c 2.1507,1.4785 5.0084,2.8573 8.5717,4.1341 3.5634,1.2769 7.362,1.9153 11.3959,1.9153 8.8742,0 15.3624,-3.0241 19.4635,-9.0746 4.101,-6.0506 6.1522,-14.1844 6.1522,-24.4015 z m 25.0108,-0.4032 c 0,8.0666 -1.043,15.4612 -3.1265,22.1826 -2.0848,6.7226 -5.0768,12.5043 -8.9763,17.3441 -3.8994,4.8397 -8.7734,8.6042 -14.6231,11.2935 -5.8486,2.6892 -12.4712,4.0333 -19.8668,4.0333 -4.9748,0 -9.5463,-0.6048 -13.7146,-1.8145 -4.1683,-1.2108 -7.5972,-2.5548 -10.2868,-4.0345 V 1568.5 h -24.4059 v -139.3526 c 4.976,-1.3452 11.0933,-2.6221 18.3545,-3.8317 7.2612,-1.2108 14.9256,-1.8157 22.9933,-1.8157 8.3377,0 15.8005,1.2769 22.3884,3.8318 6.589,2.5548 12.2023,6.2185 16.8423,10.9911 4.6387,4.7725 8.2021,10.5543 10.6901,17.344 2.4868,6.7886 3.7314,14.4184 3.7314,22.8895 z"
     style="fill:#266673;fill-opacity:1;fill-rule:nonzero;stroke-width:1.20011"
     id="path27"
     inkscape:connector-curvature="0" /><path
     d="m 907.00001,1478.506 c 0,-9.3013 1.3749,-17.456 4.1259,-24.4653 2.7499,-7.0093 6.4063,-12.8383 10.9694,-17.4883 4.5619,-4.6513 9.7945,-8.1559 15.699,-10.514 5.9033,-2.3593 11.9419,-3.5384 18.1147,-3.5384 14.4905,0 25.7953,4.5153 33.9131,13.5458 8.119,9.0318 12.17789,22.5102 12.17789,40.4377 0,1.3475 -0.034,2.8646 -0.1006,4.549 -0.067,1.6855 -0.1676,3.2015 -0.3018,4.5501 h -69.43949 c 0.6707,8.4916 3.6565,15.0617 8.9574,19.713 5.2996,4.65 12.9814,6.9756 23.0454,6.9756 5.9033,0 11.3048,-0.5402 16.202,-1.6182 4.8973,-1.078 8.7549,-2.2233 11.5731,-3.4373 l 3.2206,20.0161 c -1.3414,0.675 -3.1871,1.3824 -5.5357,2.1235 -2.3475,0.7412 -5.0314,1.4149 -8.0507,2.0225 -3.0182,0.6063 -6.2722,1.1116 -9.761,1.5159 -3.4888,0.4042 -7.0447,0.6063 -10.6676,0.6063 -9.2592,0 -17.3098,-1.3811 -24.1521,-4.1447 -6.8435,-2.7635 -12.4797,-6.605 -16.9074,-11.5245 -4.4278,-4.9195 -7.7154,-10.7161 -9.8628,-17.3886 -2.1462,-6.6712 -3.2193,-13.9837 -3.2193,-21.9362 z m 70.6454,-10.9183 c 0,-3.3699 -0.4695,-6.5713 -1.4084,-9.6044 -0.939,-3.033 -2.3151,-5.6606 -4.126,-7.8851 -1.8121,-2.2234 -4.0253,-3.9763 -6.6423,-5.2564 -2.6168,-1.2813 -5.7356,-1.9214 -9.3585,-1.9214 -3.7571,0 -7.0447,0.7074 -9.8628,2.1235 -2.8181,1.4148 -5.199,3.2688 -7.1452,5.5596 -1.945,2.2919 -3.4553,4.9207 -4.5284,7.8851 -1.0731,2.9657 -1.8121,5.9987 -2.2145,9.0991 z"
     style="fill:#266673;fill-opacity:1;fill-rule:nonzero;stroke-width:1.20038"
     id="path29"
     inkscape:connector-curvature="0" /><path
     d="m 1087.7869,1449.7694 c -2.0056,-0.674 -4.7813,-1.3816 -8.3259,-2.123 -3.5445,-0.7413 -7.6574,-1.112 -12.3384,-1.112 -2.6755,0 -5.518,0.2696 -8.5265,0.8088 -3.0097,0.5391 -5.1169,1.0109 -6.3203,1.4152 V 1533.5 H 1028 v -100.7189 c 4.6811,-1.7535 10.5322,-3.4047 17.5544,-4.9547 7.0223,-1.5513 14.8133,-2.3264 23.3733,-2.3264 1.6057,0 3.4776,0.1011 5.6182,0.3033 2.1394,0.2022 4.28,0.4718 6.4206,0.8088 2.1393,0.3369 4.2131,0.7425 6.2187,1.2143 2.0069,0.4717 3.6114,0.9098 4.8148,1.3142 z"
     style="fill:#266673;fill-opacity:1;fill-rule:nonzero;stroke-width:1.19865"
     id="path31"
     inkscape:connector-curvature="0" /><path
     sodipodi:nodetypes="cccccccccccccc"
     d="m 628.99998,1381.5 h 101 v -65 l -330,-325.00001 h 60 L 755.00001,1281.5 1040,991.49999 h 60 L 780.00001,1316.5 v 84.9979 c 0,5.0021 -5,10.0021 -10,10.0021 H 628.99998 c -12,0 -14,-10 -14,-15 0,-5 2,-15 14,-15 z"
     style="fill:#fffffe;fill-opacity:1"
     id="path35"
     inkscape:connector-curvature="0" /><rect
     id="rect12-6"
     style="clip-rule:evenodd;fill:#266673;fill-opacity:1;fill-rule:nonzero;stroke-width:1.03281;stroke-linejoin:round;stroke-miterlimit:1.41421"
     height="158"
     width="24"
     y="1375.5001"
     x="561" /></g></svg>
