<?xml version="1.0" encoding="UTF-8" standalone="no"?>
<svg
   xmlns:dc="http://purl.org/dc/elements/1.1/"
   xmlns:cc="http://creativecommons.org/ns#"
   xmlns:rdf="http://www.w3.org/1999/02/22-rdf-syntax-ns#"
   xmlns:svg="http://www.w3.org/2000/svg"
   xmlns="http://www.w3.org/2000/svg"
   xmlns:sodipodi="http://sodipodi.sourceforge.net/DTD/sodipodi-0.dtd"
   xmlns:inkscape="http://www.inkscape.org/namespaces/inkscape"
   sodipodi:docname="File.svg"
   inkscape:version="1.0beta1 (fe3e306, 2019-09-17)"
   inkscape:export-ydpi="96"
   inkscape:export-xdpi="96"
   inkscape:export-filename="C:\Users\Konstantin\Desktop\klipperui\klippy\extras\kgui\Logos\File.png"
   id="svg8"
   version="1.1"
   viewBox="0 0 100 100"
   height="100"
   width="100">
  <defs
     id="defs2">
    <inkscape:perspective
       id="perspective1418"
       inkscape:persp3d-origin="188.97638 : -151.96851 : 1"
       inkscape:vp_z="671.30414 : 131.15258 : 1"
       inkscape:vp_y="0 : 1000 : 0"
       inkscape:vp_x="-166.78698 : 109.07224 : 1"
       sodipodi:type="inkscape:persp3d" />
  </defs>
  <sodipodi:namedview
     inkscape:window-maximized="1"
     inkscape:window-y="-8"
     inkscape:window-x="-8"
     inkscape:window-height="1027"
     inkscape:window-width="1920"
     units="px"
     inkscape:snap-object-midpoints="true"
     inkscape:snap-center="true"
     inkscape:snap-page="true"
     inkscape:pagecheckerboard="true"
     showgrid="false"
     inkscape:document-rotation="0"
     inkscape:current-layer="layer1"
     inkscape:document-units="px"
     inkscape:cy="52.829179"
     inkscape:cx="41.136025"
     inkscape:zoom="4"
     inkscape:pageshadow="2"
     inkscape:pageopacity="0.0"
     borderopacity="1.0"
     bordercolor="#666666"
     pagecolor="#ffffff"
     id="base" />
  <metadata
     id="metadata5">
    <rdf:RDF>
      <cc:Work
         rdf:about="">
        <dc:format>image/svg+xml</dc:format>
        <dc:type
           rdf:resource="http://purl.org/dc/dcmitype/StillImage" />
        <dc:title></dc:title>
      </cc:Work>
    </rdf:RDF>
  </metadata>
  <g
     id="layer1"
     inkscape:groupmode="layer"
     inkscape:label="Layer 1">
    <path
       d="M 28.349365,37.5 6.6987299,25 M 50,50 28.349365,62.5 m 43.30127,0 L 50,50 V 25 m 0,50 v 25 M 71.650635,37.5 93.30127,25 M 71.650635,62.5 50,75 28.349365,62.5 v -25 L 50,25 71.650635,37.5 Z M 93.30127,75 50,100 6.6987297,75 6.6987299,25 50,0 93.30127,25 Z"
       style="fill:none;stroke:none;stroke-width:0.1;stroke-linecap:butt;stroke-linejoin:miter;stroke-opacity:1;stroke-miterlimit:4;stroke-dasharray:none"
       id="path1566" />
    <path
       inkscape:connector-curvature="0"
       id="path1590"
       d="M 17.600266,31.140003 C 11.870982,27.816243 7.267645,25.008891 7.3706271,24.901442 7.4736093,24.793993 17.095324,19.200561 28.752216,12.471593 49.26165,0.63247446 49.967902,0.24823996 50.606855,0.58166886 51.962315,1.2889986 92.523682,24.754924 92.680287,24.922368 c 0.137408,0.146915 -19.686035,11.741575 -20.790142,12.16008 -0.218708,0.0829 -4.758273,-2.392672 -10.97429,-5.984632 -5.83071,-3.369308 -10.73952,-6.126013 -10.908463,-6.126013 -0.168945,0 -5.012169,2.716593 -10.762719,6.036875 -5.75055,3.32028 -10.629242,6.067845 -10.841537,6.1057 -0.212295,0.03786 -5.073586,-2.650615 -10.80287,-5.974375 z"
       style="fill:#999999;fill-opacity:1;stroke:none;stroke-width:0.025;stroke-linecap:round;stroke-linejoin:round;stroke-miterlimit:4;stroke-dasharray:none;stroke-opacity:1;paint-order:markers stroke fill" />
    <path
       inkscape:connector-curvature="0"
       id="path1592"
       d="M 39.329645,68.654831 C 33.58902,65.327695 28.895232,62.547287 28.899006,62.476147 28.91059,62.257746 49.747644,50.344711 50.059535,50.378174 c 0.362466,0.03889 21.059717,11.919735 21.073,12.096538 0.01172,0.156061 -20.659663,12.100223 -21.072235,12.175775 -0.161236,0.02953 -4.99003,-2.668519 -10.730655,-5.995656 z"
       style="fill:#949494;fill-opacity:1;stroke:none;stroke-width:0;stroke-linecap:round;stroke-linejoin:round;stroke-miterlimit:4;stroke-dasharray:none;stroke-opacity:1;paint-order:markers stroke fill" />
    <path
       inkscape:connector-curvature="0"
       id="path1594"
       d="m 50.145354,87.438056 0.0032,-12.341253 10.867087,-6.25 10.867088,-6.25 0.0047,-12.516443 0.0047,-12.516443 10.471582,-6.046057 c 5.759373,-3.325331 10.540623,-6.046057 10.625,-6.046057 0.08438,0 0.153418,11.120208 0.153418,24.711573 v 24.711572 l -20.9375,12.079275 c -11.515625,6.6436 -21.190625,12.24258 -21.5,12.442177 l -0.5625,0.362908 z"
       style="fill:#2e2e2e;fill-opacity:1;stroke:none;stroke-width:0;stroke-linecap:round;stroke-linejoin:round;stroke-miterlimit:4;stroke-dasharray:none;stroke-opacity:1;paint-order:markers stroke fill" />
    <path
       inkscape:connector-curvature="0"
       id="path1596"
       d="m 28.452274,49.943203 0.06487,-12.330787 10.6875,-6.174156 10.6875,-6.174156 v 12.300164 12.300164 l -9.9375,5.729689 c -5.465625,3.15133 -10.304192,5.94348 -10.752371,6.20478 l -0.814871,0.475087 z"
       style="fill:#2e2e2e;fill-opacity:1;stroke:none;stroke-width:0;stroke-linecap:round;stroke-linejoin:round;stroke-miterlimit:4;stroke-dasharray:none;stroke-opacity:1;paint-order:markers stroke fill" />
    <path
       inkscape:connector-curvature="0"
       id="path1602"
       d="M 28.386995,87.363006 6.9970148,75.011018 6.9522079,50.139557 6.907401,25.268096 7.8360914,25.808652 c 0.5107796,0.297305 5.3204106,3.068376 10.6880686,6.157935 l 9.75938,5.61738 0.05173,12.548724 0.05173,12.548725 10.735539,6.189604 10.735537,6.189606 0.0036,12.330175 c 0.002,6.781596 -0.01625,12.328829 -0.04055,12.327185 -0.02431,-0.0016 -9.669685,-5.561386 -21.434174,-12.35498 z"
       style="fill:#5e5e5e;fill-opacity:1;stroke:none;stroke-width:0;stroke-linecap:round;stroke-linejoin:round;stroke-miterlimit:4;stroke-dasharray:none;stroke-opacity:1;paint-order:markers stroke fill" />
    <path
       inkscape:connector-curvature="0"
       id="path1604"
       d="M 60.781324,56.086379 50.218917,49.964115 V 37.616633 25.269151 l 0.574524,0.346833 c 0.315988,0.190758 5.088959,2.949972 10.606602,6.131586 L 71.43212,37.532323 V 49.88832 c 0,6.795798 -0.01989,12.34797 -0.04419,12.338159 -0.02431,-0.0098 -4.797278,-2.772854 -10.606602,-6.1401 z"
       style="fill:#595959;fill-opacity:1;stroke:none;stroke-width:0;stroke-linecap:round;stroke-linejoin:round;stroke-miterlimit:4;stroke-dasharray:none;stroke-opacity:1;paint-order:markers stroke fill" />
  </g>
</svg>
