<?xml version="1.0" encoding="UTF-8" standalone="no"?>
<svg
   xmlns:dc="http://purl.org/dc/elements/1.1/"
   xmlns:cc="http://creativecommons.org/ns#"
   xmlns:rdf="http://www.w3.org/1999/02/22-rdf-syntax-ns#"
   xmlns:svg="http://www.w3.org/2000/svg"
   xmlns="http://www.w3.org/2000/svg"
   xmlns:sodipodi="http://sodipodi.sourceforge.net/DTD/sodipodi-0.dtd"
   xmlns:inkscape="http://www.inkscape.org/namespaces/inkscape"
   width="60"
   height="60"
   viewBox="0 0 15.875 15.875"
   version="1.1"
   id="svg8"
   inkscape:version="1.0beta1 (fe3e306, 2019-09-17)"
   sodipodi:docname="settings.svg"
   inkscape:export-filename="C:\Users\Konstantin\Desktop\klipperui\klippy\extras\kgui\logos\settings.png"
   inkscape:export-xdpi="96"
   inkscape:export-ydpi="96">
  <defs
     id="defs2">
    <inkscape:path-effect
       effect="fillet_chamfer"
       id="path-effect862"
       is_visible="true"
       satellites_param="F,0,0,1,0,0.83561203,0,1 @ F,0,0,1,0,1.6202445,0,1 @ F,0,0,1,0,0.88991656,0,1 @ F,0,0,1,0,0.83547811,0,1 @ F,0,0,1,0,1.6201386,0,1 @ F,0,0,1,0,0.88986941,0,1 @ F,0,0,1,0,4.4766689e-06,0,1 @ F,0,0,1,0,0.83552171,0,1 @ F,0,0,1,0,1.6200521,0,1 @ F,0,0,1,0,0.88977884,0,1 @ F,0,0,1,0,0.83561179,0,1 @ F,0,0,1,0,1.6202443,0,1 @ F,0,0,1,0,0.88991652,0,1 @ F,0,0,1,0,0.83547822,0,1 @ F,0,0,1,0,1.6201386,0,1 @ F,0,0,1,0,0.88986924,0,1 @ F,0,0,1,0,4.3208407e-06,0,1 @ F,0,0,1,0,0.83552155,0,1 @ F,0,0,1,0,1.6200523,0,1 @ F,0,0,1,0,0.88977885,0,1"
       unit="px"
       method="arc"
       mode="F"
       radius="1"
       chamfer_steps="1"
       flexible="false"
       use_knot_distance="false"
       apply_no_radius="true"
       apply_with_radius="true"
       only_selected="false"
       hide_knots="false" />
  </defs>
  <sodipodi:namedview
     id="base"
     pagecolor="#1e1e1e"
     bordercolor="#666666"
     borderopacity="1.0"
     inkscape:pageopacity="0"
     inkscape:pageshadow="2"
     inkscape:zoom="7.9195959"
     inkscape:cx="35.040917"
     inkscape:cy="42.209851"
     inkscape:document-units="px"
     inkscape:current-layer="layer1"
     showgrid="false"
     units="px"
     inkscape:window-width="3840"
     inkscape:window-height="2080"
     inkscape:window-x="-11"
     inkscape:window-y="-11"
     inkscape:window-maximized="1"
     inkscape:pagecheckerboard="true"
     inkscape:document-rotation="0" />
  <metadata
     id="metadata5">
    <rdf:RDF>
      <cc:Work
         rdf:about="">
        <dc:format>image/svg+xml</dc:format>
        <dc:type
           rdf:resource="http://purl.org/dc/dcmitype/StillImage" />
        <dc:title></dc:title>
      </cc:Work>
    </rdf:RDF>
  </metadata>
  <g
     inkscape:label="Layer 1"
     inkscape:groupmode="layer"
     id="layer1"
     transform="translate(0,-270.54165)"
     style="display:inline">
    <path
       id="path10"
       style="fill:#ffffff;fill-opacity:1;stroke:#fffffb;stroke-width:1.05833333;stroke-linejoin:round;stroke-miterlimit:4;stroke-dasharray:none;stroke-opacity:1"
       d="m 7.9374993,272.12184 v 4.1e-4 c 0.260602,0.003 0.520843,0.0197 0.779308,0.0518 l 0.357545,1.85692 c 0.83553,0.19995 1.5988817,0.61683 2.2082457,1.20562 l 1.875558,-0.65086 c 0.313026,0.38685 0.578372,0.80699 0.790907,1.25243 l -1.484868,1.29595 c 0.138118,0.4358 0.208243,0.88937 0.208395,1.34525 -0.0014,0.45521 -0.07277,0.90749 -0.211709,1.34234 l 1.486939,1.29803 c -0.210573,0.44604 -0.473889,0.86701 -0.785107,1.25492 l -1.88053,-0.65253 c -0.609254,0.58844 -1.3722187,1.00494 -2.2074157,1.2048 l -0.358374,1.86064 c -0.258414,0.031 -0.518477,0.0473 -0.778894,0.0489 -0.2606,-0.003 -0.52084,-0.0197 -0.779307,-0.0518 l -0.357545,-1.85692 c -0.8355297,-0.19995 -1.5988812,-0.61681 -2.2082448,-1.20562 l -1.8755581,0.65087 c -0.3130254,-0.38685 -0.5783728,-0.807 -0.7909079,-1.25243 l 1.4848692,-1.29636 c -0.1381179,-0.43581 -0.2082427,-0.88895 -0.2083958,-1.34483 0.00144,-0.45521 0.072757,-0.90751 0.2117101,-1.34235 L 1.92718,275.839 c 0.210461,-0.44602 0.4735988,-0.86742 0.7846929,-1.25535 l 1.8805296,0.65295 c 0.6093524,-0.5885 1.3725075,-1.00498 2.2078308,-1.2048 l 0.358374,-1.86064 c 0.258415,-0.031 0.518476,-0.0477 0.778892,-0.0493 z m 0.02445,3.28958 a 3.1216846,3.0681153 0 0 0 -0.02445,0 3.1216846,3.0681153 0 0 0 -3.1217865,3.06793 3.1216846,3.0681153 0 0 0 3.1217865,3.06793 3.1216846,3.0681153 0 0 0 3.1217877,-3.06793 3.1216846,3.0681153 0 0 0 -3.0973427,-3.06793 z"
       inkscape:connector-curvature="0" />
  </g>
  <g
     inkscape:groupmode="layer"
     id="layer2"
     inkscape:label="Layer 2"
     style="display:none" />
  <g
     inkscape:groupmode="layer"
     id="layer3"
     inkscape:label="Layer 3"
     style="display:none">
    <path
       id="path845"
       style="fill:#ffffff;stroke-width:0.264583;stroke-linejoin:round"
       d="m 15.493507,5.8787371 -1.413405,2.2901963 a 0.99999997,0.99999997 179.99848 0 1 -1.701943,4.5e-5 L 10.993387,5.9254414 A 1.0311539,1.0311539 18.399096 0 0 9.6985819,5.4947399 C 9.1898423,5.7269954 8.7052048,6.0089036 8.2517521,6.3363744 A 0.97302369,0.97302369 101.50613 0 0 7.9958514,7.5934779 l 1.276355,2.3687136 A 1,1 119.99831 0 1 8.4212937,11.436116 l -2.6354675,0.07757 A 1.0311532,1.0311532 138.3987 0 0 4.765464,12.419646 c -0.025718,0.268904 -0.038622,0.539049 -0.038621,0.809518 a 0.82630155,0.82630155 90.000046 0 1 0,7e-6 c -1.3e-6,0.288607 0.014692,0.576846 0.043968,0.863602 a 0.97302494,0.97302494 41.511031 0 0 0.9606909,0.850277 l 2.689878,0.07917 a 0.99999998,0.99999998 60.000325 0 1 0.8509353,1.473882 L 8.021572,18.81755 a 1.031154,1.031154 78.402257 0 0 0.2743052,1.336578 c 0.455465,0.324518 0.9418856,0.603341 1.4521792,0.832378 A 0.97302392,0.97302392 161.50914 0 0 10.964827,20.579597 L 12.378232,18.2894 a 1,1 179.99849 0 1 1.701943,-4.5e-5 l 1.384771,2.243537 a 1.0311539,1.0311539 18.399102 0 0 1.294805,0.430701 c 0.50874,-0.232255 0.993377,-0.514163 1.44683,-0.841634 a 0.97302369,0.97302369 101.50614 0 0 0.255901,-1.257104 l -1.276355,-2.368714 a 1,1 119.99831 0 1 0.850912,-1.473924 l 2.635468,-0.07757 a 1.0311532,1.0311532 138.3987 0 0 1.020362,-0.905962 c 0.02572,-0.268904 0.03862,-0.539049 0.03862,-0.809517 a 0.82013631,0.82013631 90.000053 0 1 0,-7e-6 c 10e-7,-0.288608 -0.01469,-0.576846 -0.04397,-0.863603 a 0.97302494,0.97302494 41.511025 0 0 -0.960691,-0.850277 l -2.689878,-0.07917 A 0.99999998,0.99999998 60.000328 0 1 17.186018,9.9622309 L 18.436761,7.640784 A 1.031154,1.031154 78.402262 0 0 18.162456,6.3042057 C 17.706991,5.9796877 17.22057,5.7008649 16.710277,5.4718272 a 0.97302392,0.97302392 161.50914 0 0 -1.21677,0.4069099 z"
       inkscape:connector-curvature="0"
       inkscape:path-effect="#path-effect862"
       inkscape:original-d="M 15.932361,5.1676434 13.229167,9.5477379 10.525972,5.1681601 A 8.5025107,8.5025107 0 0 0 7.5995362,6.8579795 l 2.4411948,4.5304725 -5.144389,0.151412 a 8.5025107,8.5025107 0 0 0 -0.1694987,1.689303 8.5025107,8.5025107 0 0 0 0.1694987,1.689302 l 5.144389,0.151412 -2.4411948,4.53099 a 8.5025107,8.5025107 0 0 0 2.9264358,1.689819 l 2.703195,-4.380094 2.703194,4.379577 a 8.5025107,8.5025107 0 0 0 2.926436,-1.689819 l -2.441195,-4.530473 5.144389,-0.151412 A 8.5025107,8.5025107 0 0 0 21.73149,13.229167 8.5025107,8.5025107 0 0 0 21.561991,11.539864 L 16.417602,11.388452 18.858797,6.8574628 A 8.5025107,8.5025107 0 0 0 15.932361,5.1676434 Z" />
    <path
       id="path860"
       style="fill:#ffffff;stroke-width:0.290708;stroke-linejoin:round"
       d="m 13.545722,7.4721911 c -3.400748,0.015444 -6.1494492,2.7766179 -6.1494957,6.1774009 8.19e-5,3.41165 2.7657507,6.177318 6.1774007,6.1774 3.41165,-8.2e-5 6.177319,-2.76575 6.177401,-6.1774 -8.2e-5,-3.411651 -2.765751,-6.1773192 -6.177401,-6.1774009 -0.0093,-2.09e-5 -0.0186,-2.09e-5 -0.02791,0 z m 1.507623,3.4259999 c 1.494487,-1.06e-4 2.706114,1.21129 2.706295,2.705778 1.05e-4,1.494689 -1.211606,2.7064 -2.706295,2.706295 -1.494488,-1.81e-4 -2.705884,-1.211808 -2.705778,-2.706295 1.8e-4,-1.494286 1.211492,-2.705598 2.705778,-2.705778 z"
       inkscape:connector-curvature="0"
       sodipodi:nodetypes="ccccccccccc" />
  </g>
  <g
     inkscape:label="Layer 3 copy"
     id="g849"
     inkscape:groupmode="layer"
     style="display:none">
    <path
       d="M 47.503062,-44.607541 17.786356,10.544808 80.408045,12.385554 17.786356,14.226306 47.503068,69.378652 14.598086,16.067055 -18.306892,69.378655 11.409815,14.226306 -51.211874,12.38556 11.409815,10.544808 -18.306897,-44.607538 14.598085,8.7040594 Z"
       inkscape:randomized="0"
       inkscape:rounded="0"
       inkscape:flatsided="false"
       sodipodi:arg2="-0.52359882"
       sodipodi:arg1="-1.0471976"
       sodipodi:r2="3.6814978"
       sodipodi:r1="65.809959"
       sodipodi:cy="12.385557"
       sodipodi:cx="14.598085"
       sodipodi:sides="6"
       id="path847"
       style="fill:#ffffff;stroke-width:0.264583;stroke-linejoin:round"
       sodipodi:type="star" />
  </g>
</svg>
