<?xml version="1.0" encoding="UTF-8" standalone="no"?>
<svg
   xmlns:dc="http://purl.org/dc/elements/1.1/"
   xmlns:cc="http://creativecommons.org/ns#"
   xmlns:rdf="http://www.w3.org/1999/02/22-rdf-syntax-ns#"
   xmlns:svg="http://www.w3.org/2000/svg"
   xmlns="http://www.w3.org/2000/svg"
   xmlns:sodipodi="http://sodipodi.sourceforge.net/DTD/sodipodi-0.dtd"
   xmlns:inkscape="http://www.inkscape.org/namespaces/inkscape"
   inkscape:export-ydpi="96"
   inkscape:export-xdpi="96"
   inkscape:export-filename="C:\Users\Konstantin\Desktop\klipperui\klippy\extras\kgui\Logos\SettingsIcon.png"
   sodipodi:docname="SettingsIcon.svg"
   inkscape:version="1.0beta1 (fe3e306, 2019-09-17)"
   id="svg8"
   version="1.1"
   viewBox="0 0 26.458333 26.458334"
   height="100"
   width="100">
  <defs
     id="defs2">
    <inkscape:path-effect
       hide_knots="false"
       only_selected="false"
       apply_with_radius="true"
       apply_no_radius="true"
       use_knot_distance="false"
       flexible="false"
       chamfer_steps="1"
       radius="1"
       mode="F"
       method="arc"
       unit="px"
       satellites_param="F,0,0,1,0,0.83561203,0,1 @ F,0,0,1,0,1.6202445,0,1 @ F,0,0,1,0,0.88991656,0,1 @ F,0,0,1,0,0.83547811,0,1 @ F,0,0,1,0,1.6201386,0,1 @ F,0,0,1,0,0.88986941,0,1 @ F,0,0,1,0,4.4766689e-06,0,1 @ F,0,0,1,0,0.83552171,0,1 @ F,0,0,1,0,1.6200521,0,1 @ F,0,0,1,0,0.88977884,0,1 @ F,0,0,1,0,0.83561179,0,1 @ F,0,0,1,0,1.6202443,0,1 @ F,0,0,1,0,0.88991652,0,1 @ F,0,0,1,0,0.83547822,0,1 @ F,0,0,1,0,1.6201386,0,1 @ F,0,0,1,0,0.88986924,0,1 @ F,0,0,1,0,4.3208407e-06,0,1 @ F,0,0,1,0,0.83552155,0,1 @ F,0,0,1,0,1.6200523,0,1 @ F,0,0,1,0,0.88977885,0,1"
       is_visible="true"
       id="path-effect862"
       effect="fillet_chamfer" />
  </defs>
  <sodipodi:namedview
     inkscape:document-rotation="0"
     inkscape:pagecheckerboard="true"
     inkscape:window-maximized="1"
     inkscape:window-y="-8"
     inkscape:window-x="-8"
     inkscape:window-height="1027"
     inkscape:window-width="1920"
     units="px"
     showgrid="false"
     inkscape:current-layer="layer1"
     inkscape:document-units="px"
     inkscape:cy="16.317619"
     inkscape:cx="65.589047"
     inkscape:zoom="2.8"
     inkscape:pageshadow="2"
     inkscape:pageopacity="0"
     borderopacity="1.0"
     bordercolor="#666666"
     pagecolor="#1e1e1e"
     id="base" />
  <metadata
     id="metadata5">
    <rdf:RDF>
      <cc:Work
         rdf:about="">
        <dc:format>image/svg+xml</dc:format>
        <dc:type
           rdf:resource="http://purl.org/dc/dcmitype/StillImage" />
        <dc:title></dc:title>
      </cc:Work>
    </rdf:RDF>
  </metadata>
  <g
     style="display:inline"
     transform="translate(0,-270.54165)"
     id="layer1"
     inkscape:groupmode="layer"
     inkscape:label="Layer 1">
    <path
       inkscape:connector-curvature="0"
       d="m 13.229166,275.84107 v 5.1e-4 c 0.325049,0.004 0.649649,0.0246 0.972034,0.0646 l 0.445968,2.31614 c 1.04216,0.2494 1.994292,0.76937 2.754354,1.50378 l 2.339392,-0.81183 c 0.390439,0.48253 0.721407,1.00657 0.986503,1.56217 l -1.852083,1.61644 c 0.172275,0.54358 0.259742,1.10932 0.259932,1.67794 -0.0018,0.56778 -0.09076,1.13192 -0.264066,1.67431 l 1.854666,1.61903 c -0.262649,0.55635 -0.591084,1.08143 -0.979268,1.56527 l -2.345593,-0.8139 c -0.759925,0.73396 -1.711575,1.25346 -2.75332,1.50275 l -0.447002,2.32079 c -0.322321,0.0386 -0.646698,0.059 -0.971517,0.061 -0.325048,-0.004 -0.649647,-0.0246 -0.972033,-0.0646 l -0.445968,-2.31614 c -1.04216,-0.2494 -1.9942918,-0.76935 -2.7543538,-1.50378 l -2.339392,0.81184 c -0.390438,-0.48254 -0.721407,-1.00659 -0.986503,-1.56218 l 1.852084,-1.61696 c -0.172275,-0.54358 -0.259742,-1.10879 -0.259933,-1.67741 0.0018,-0.56778 0.09075,-1.13194 0.264067,-1.67432 l -1.854667,-1.61902 c 0.262509,-0.55633 0.590722,-1.08194 0.978751,-1.5658 l 2.345593,0.81442 c 0.760048,-0.73404 1.7119348,-1.25352 2.7538368,-1.50275 l 0.447002,-2.32079 c 0.322322,-0.0387 0.646698,-0.0595 0.971516,-0.0615 z m 0.03049,4.10311 a 3.8936913,3.826874 0 0 0 -0.03049,0 3.8936913,3.826874 0 0 0 -3.8938188,3.82664 3.8936913,3.826874 0 0 0 3.8938188,3.82664 3.8936913,3.826874 0 0 0 3.89382,-3.82664 3.8936913,3.826874 0 0 0 -3.86333,-3.82664 z"
       style="fill:#ffffff;fill-opacity:1;stroke:#fffffb;stroke-width:1.32292;stroke-linejoin:round;stroke-miterlimit:4;stroke-dasharray:none;stroke-opacity:1"
       id="path10" />
  </g>
  <g
     style="display:none"
     inkscape:label="Layer 2"
     id="layer2"
     inkscape:groupmode="layer" />
  <g
     style="display:none"
     inkscape:label="Layer 3"
     id="layer3"
     inkscape:groupmode="layer">
    <path
       inkscape:original-d="M 15.932361,5.1676434 13.229167,9.5477379 10.525972,5.1681601 A 8.5025107,8.5025107 0 0 0 7.5995362,6.8579795 l 2.4411948,4.5304725 -5.144389,0.151412 a 8.5025107,8.5025107 0 0 0 -0.1694987,1.689303 8.5025107,8.5025107 0 0 0 0.1694987,1.689302 l 5.144389,0.151412 -2.4411948,4.53099 a 8.5025107,8.5025107 0 0 0 2.9264358,1.689819 l 2.703195,-4.380094 2.703194,4.379577 a 8.5025107,8.5025107 0 0 0 2.926436,-1.689819 l -2.441195,-4.530473 5.144389,-0.151412 A 8.5025107,8.5025107 0 0 0 21.73149,13.229167 8.5025107,8.5025107 0 0 0 21.561991,11.539864 L 16.417602,11.388452 18.858797,6.8574628 A 8.5025107,8.5025107 0 0 0 15.932361,5.1676434 Z"
       inkscape:path-effect="#path-effect862"
       inkscape:connector-curvature="0"
       d="m 15.493507,5.8787371 -1.413405,2.2901963 a 0.99999997,0.99999997 179.99848 0 1 -1.701943,4.5e-5 L 10.993387,5.9254414 A 1.0311539,1.0311539 18.399096 0 0 9.6985819,5.4947399 C 9.1898423,5.7269954 8.7052048,6.0089036 8.2517521,6.3363744 A 0.97302369,0.97302369 101.50613 0 0 7.9958514,7.5934779 l 1.276355,2.3687136 A 1,1 119.99831 0 1 8.4212937,11.436116 l -2.6354675,0.07757 A 1.0311532,1.0311532 138.3987 0 0 4.765464,12.419646 C 4.739746,12.68855 4.726842,12.958695 4.726843,13.229164 a 0.82630155,0.82630155 90.000046 0 1 0,7e-6 c -1.3e-6,0.288607 0.014692,0.576846 0.043968,0.863602 a 0.97302494,0.97302494 41.511031 0 0 0.9606909,0.850277 l 2.689878,0.07917 a 0.99999998,0.99999998 60.000325 0 1 0.8509353,1.473882 L 8.021572,18.81755 a 1.031154,1.031154 78.402257 0 0 0.2743052,1.336578 c 0.455465,0.324518 0.9418856,0.603341 1.4521792,0.832378 A 0.97302392,0.97302392 161.50914 0 0 10.964827,20.579597 L 12.378232,18.2894 a 1,1 179.99849 0 1 1.701943,-4.5e-5 l 1.384771,2.243537 a 1.0311539,1.0311539 18.399102 0 0 1.294805,0.430701 c 0.50874,-0.232255 0.993377,-0.514163 1.44683,-0.841634 a 0.97302369,0.97302369 101.50614 0 0 0.255901,-1.257104 l -1.276355,-2.368714 a 1,1 119.99831 0 1 0.850912,-1.473924 l 2.635468,-0.07757 a 1.0311532,1.0311532 138.3987 0 0 1.020362,-0.905962 c 0.02572,-0.268904 0.03862,-0.539049 0.03862,-0.809517 a 0.82013631,0.82013631 90.000053 0 1 0,-7e-6 c 1e-6,-0.288608 -0.01469,-0.576846 -0.04397,-0.863603 A 0.97302494,0.97302494 41.511025 0 0 20.726828,11.515281 L 18.03695,11.436111 A 0.99999998,0.99999998 60.000328 0 1 17.186018,9.9622309 L 18.436761,7.640784 A 1.031154,1.031154 78.402262 0 0 18.162456,6.3042057 C 17.706991,5.9796877 17.22057,5.7008649 16.710277,5.4718272 a 0.97302392,0.97302392 161.50914 0 0 -1.21677,0.4069099 z"
       style="fill:#ffffff;stroke-width:0.264583;stroke-linejoin:round"
       id="path845" />
    <path
       sodipodi:nodetypes="ccccccccccc"
       inkscape:connector-curvature="0"
       d="m 13.545722,7.4721911 c -3.400748,0.015444 -6.1494492,2.7766179 -6.1494957,6.1774009 8.19e-5,3.41165 2.7657507,6.177318 6.1774007,6.1774 3.41165,-8.2e-5 6.177319,-2.76575 6.177401,-6.1774 -8.2e-5,-3.411651 -2.765751,-6.1773192 -6.177401,-6.1774009 -0.0093,-2.09e-5 -0.0186,-2.09e-5 -0.02791,0 z m 1.507623,3.4259999 c 1.494487,-1.06e-4 2.706114,1.21129 2.706295,2.705778 1.05e-4,1.494689 -1.211606,2.7064 -2.706295,2.706295 -1.494488,-1.81e-4 -2.705884,-1.211808 -2.705778,-2.706295 1.8e-4,-1.494286 1.211492,-2.705598 2.705778,-2.705778 z"
       style="fill:#ffffff;stroke-width:0.290708;stroke-linejoin:round"
       id="path860" />
  </g>
  <g
     style="display:none"
     inkscape:groupmode="layer"
     id="g849"
     inkscape:label="Layer 3 copy">
    <path
       sodipodi:type="star"
       style="fill:#ffffff;stroke-width:0.264583;stroke-linejoin:round"
       id="path847"
       sodipodi:sides="6"
       sodipodi:cx="14.598085"
       sodipodi:cy="12.385557"
       sodipodi:r1="65.809959"
       sodipodi:r2="3.6814978"
       sodipodi:arg1="-1.0471976"
       sodipodi:arg2="-0.52359882"
       inkscape:flatsided="false"
       inkscape:rounded="0"
       inkscape:randomized="0"
       d="M 47.503062,-44.607541 17.786356,10.544808 80.408045,12.385554 17.786356,14.226306 47.503068,69.378652 14.598086,16.067055 -18.306892,69.378655 11.409815,14.226306 -51.211874,12.38556 11.409815,10.544808 -18.306897,-44.607538 14.598085,8.7040594 Z" />
  </g>
</svg>
